Coordinates
version=1
nRows=9
nColumns=24
inDegrees=yes

Units are S.I. units (second, meters, Newtons, ...)
Angles are in degrees.

endheader
time	pelvis_tilt	pelvis_list	pelvis_rotation	pelvis_tx	pelvis_ty	pelvis_tz	hip_flexion_r	hip_adduction_r	hip_rotation_r	knee_angle_r	ankle_angle_r	subtalar_angle_r	mtp_angle_r	hip_flexion_l	hip_adduction_l	hip_rotation_l	knee_angle_l	ankle_angle_l	subtalar_angle_l	mtp_angle_l	lumbar_extension	lumbar_bending	lumbar_rotation
      1.32316667	     -0.21319571	      1.60129578	     -4.88506701	      0.91154789	      0.96889802	      0.32890982	    -20.30178036	     -1.13828298	     -1.09198218	     -6.21307547	     19.76744644	      2.39761373	     -2.54149424	     25.25899945	     -0.54779227	     -1.19049812	      6.45691657	      1.73497687	     -5.14361475	     -1.82216869	    -13.70675382	      3.13329299	      8.99043969
      1.32733333	     -0.22024275	      1.71921666	     -4.93307351	      0.91745763	      0.96813351	      0.32846304	    -20.48885684	     -1.35557712	     -1.27499625	     -6.53332918	     19.75278677	      2.72988421	     -2.31402072	     25.36740659	     -0.39580825	     -0.95656852	      5.92375576	      1.77072445	     -5.27231223	     -1.79778161	    -13.68298546	      2.96057702	      9.10072903
      1.33150000	     -0.22879058	      1.83728810	     -4.99032858	      0.92339992	      0.96741349	      0.32807597	    -20.70372779	     -1.56241278	     -1.30137691	     -6.78563861	     19.59708869	      2.71838116	     -2.27264342	     25.47872356	     -0.24705428	     -0.75485585	      5.33662641	      1.81098264	     -5.39079284	     -1.78904484	    -13.64430610	      2.78528113	      9.10887674
      1.33566667	     -0.24484457	      1.95317889	     -5.02183249	      0.92941741	      0.96668298	      0.32764410	    -20.90940087	     -1.75949693	     -1.38454584	     -7.05137253	     19.43214041	      2.77945309	     -2.18437539	     25.59363972	     -0.08681134	     -0.49442583	      4.72583688	      1.82855028	     -5.54063731	     -1.77391836	    -13.56047423	      2.57968089	      9.15251549
      1.33983333	     -0.27354931	      2.09327748	     -5.07419979	      0.93545101	      0.96595411	      0.32715212	    -21.04682956	     -2.00220193	     -1.55030927	     -7.42730929	     19.35191594	      3.04422690	     -1.76149319	     25.69876394	      0.10051741	     -0.18433354	      4.13289152	      1.64381337	     -5.95940548	     -1.70712708	    -13.49588241	      2.38471172	      9.25788746
      1.34400000	     -0.28848690	      2.24240163	     -5.10985637	      0.94156570	      0.96527963	      0.32670117	    -21.25155801	     -2.23338359	     -1.59844523	     -7.69248238	     19.11349562	      3.00125702	     -1.65397750	     25.80803874	      0.30327929	      0.00869663	      3.47412540	      1.55271692	     -6.09669964	     -1.68821591	    -13.41834275	      2.15502654	      9.26305697
      1.34816667	     -0.31241278	      2.38384582	     -5.14132923	      0.94770400	      0.96460623	      0.32619397	    -21.42740619	     -2.46053638	     -1.68480182	     -7.98947889	     18.78744752	      2.93844593	      3.33725923	     25.90571873	      0.50858304	      0.31389798	      2.84240049	      1.23904540	     -6.52619400	     -0.75134772	    -13.34375153	      1.97039698	      9.28015055
      1.35233333	     -0.33508813	      2.55715624	     -5.18715016	      0.95391342	      0.96397194	      0.32571502	    -21.59496077	     -2.72334936	     -1.75927302	     -8.31278122	     18.52020441	      2.92964030	      3.35288159	     26.01959553	      0.74194022	      0.44424086	      2.14907344	      1.01014652	     -6.70559102	     -0.75350777	    -13.24679220	      1.71293733	      9.31468593
      1.35650000	     -0.38996950	      2.73501977	     -5.22904347	      0.96014230	      0.96330817	      0.32516589	    -21.69708288	     -2.99576915	     -1.88327804	     -8.70030283	     18.30669931	      3.03877068	      3.47212961	     26.13211908	      0.99031364	      0.73562723	      1.52548666	      0.53296293	     -7.28251114	     -0.73967483	    -13.12545468	      1.47234840	      9.42283108
